<?xml version="1.0" encoding="UTF-8"?>
<svg xmlns="http://www.w3.org/2000/svg" xmlns:xlink="http://www.w3.org/1999/xlink" width="38px" height="38px" viewBox="0 0 38 38" version="1.1">
<g id="surface1">
<path style=" stroke:none;fill-rule:nonzero;fill:rgb(100%,100%,100%);fill-opacity:1;" d="M 14.652344 23.679688 C 13.839844 23.695312 13.09375 23.214844 12.773438 22.464844 C 12.453125 21.714844 12.621094 20.84375 13.195312 20.265625 C 13.769531 19.683594 14.636719 19.511719 15.390625 19.824219 C 16.140625 20.136719 16.632812 20.875 16.625 21.691406 C 16.628906 22.785156 15.746094 23.671875 14.652344 23.679688 Z M 14.652344 23.679688 "/>
<path style=" stroke:none;fill-rule:nonzero;fill:rgb(100%,100%,100%);fill-opacity:1;" d="M 23.390625 25.742188 C 23.488281 25.832031 23.542969 25.957031 23.542969 26.089844 C 23.542969 26.222656 23.488281 26.347656 23.390625 26.4375 C 21.566406 28.285156 16.425781 28.285156 14.605469 26.4375 C 14.410156 26.253906 14.402344 25.953125 14.585938 25.757812 C 14.769531 25.566406 15.070312 25.558594 15.265625 25.742188 C 16.65625 27.1875 21.269531 27.214844 22.722656 25.742188 C 22.910156 25.5625 23.203125 25.5625 23.390625 25.742188 Z M 23.390625 25.742188 "/>
<path style=" stroke:none;fill-rule:nonzero;fill:rgb(100%,100%,100%);fill-opacity:1;" d="M 25.339844 21.695312 C 25.320312 22.777344 24.425781 23.640625 23.34375 23.628906 C 22.257812 23.617188 21.386719 22.734375 21.390625 21.648438 C 21.394531 20.566406 22.269531 19.683594 23.351562 19.679688 C 23.882812 19.679688 24.394531 19.894531 24.765625 20.273438 C 25.140625 20.652344 25.347656 21.164062 25.339844 21.695312 Z M 25.339844 21.695312 "/>
<path style=" stroke:none;fill-rule:nonzero;fill:rgb(100%,100%,100%);fill-opacity:1;" d="M 19 0 C 8.507812 0 0 8.507812 0 19 C 0 29.492188 8.507812 38 19 38 C 29.492188 38 38 29.492188 38 19 C 38 8.507812 29.492188 0 19 0 Z M 29.417969 21.398438 C 29.527344 21.8125 29.582031 22.242188 29.578125 22.671875 C 29.578125 26.925781 24.851562 30.375 19.027344 30.375 C 13.203125 30.375 8.5 26.921875 8.5 22.671875 C 8.5 22.25 8.542969 21.828125 8.628906 21.417969 C 6.082031 20.121094 6.992188 16.332031 9.777344 16.332031 C 10.503906 16.332031 11.199219 16.632812 11.699219 17.160156 C 13.488281 15.902344 15.875 15.097656 18.519531 14.984375 L 20.03125 7.996094 C 20.058594 7.875 20.128906 7.769531 20.234375 7.703125 C 20.335938 7.636719 20.464844 7.609375 20.585938 7.636719 L 25.460938 8.730469 C 25.917969 7.875 26.929688 7.472656 27.851562 7.78125 C 28.773438 8.089844 29.335938 9.023438 29.183594 9.984375 C 29.027344 10.945312 28.203125 11.652344 27.230469 11.660156 C 26.703125 11.65625 26.199219 11.445312 25.832031 11.070312 C 25.460938 10.695312 25.257812 10.1875 25.261719 9.660156 L 20.855469 8.65625 L 19.46875 14.996094 C 22.136719 15.082031 24.542969 15.890625 26.332031 17.152344 C 26.828125 16.640625 27.511719 16.347656 28.226562 16.347656 C 30.996094 16.335938 31.914062 20.097656 29.417969 21.398438 Z M 29.417969 21.398438 "/>
</g>
</svg>
