<!-- icon666.com - MILLIONS OF FREE VECTOR ICONS --><svg viewBox="0 0 176 176" xmlns="http://www.w3.org/2000/svg"><g id="Layer_2" data-name="Layer 2"><g id="_75.reddit" data-name="75.reddit"><g id="icon"><path d="m67.87 109.68a9.29 9.29 0 1 1 9.13-9.22 9.19 9.19 0 0 1 -9.13 9.22z" fill="#000000" style="fill: rgb(0, 0, 0);"></path><path d="m108.33 119.22a2.2 2.2 0 0 1 0 3.23c-8.44 8.56-32.25 8.56-40.69 0a2.22 2.22 0 0 1 3.06-3.23c6.44 6.71 27.82 6.82 34.55 0a2.21 2.21 0 0 1 3.08 0z" fill="#000000" style="fill: rgb(0, 0, 0);"></path><path d="m117.37 100.48a9.15 9.15 0 1 1 -9.21-9.34 9.25 9.25 0 0 1 9.21 9.34z" fill="#000000" style="fill: rgb(0, 0, 0);"></path><path d="m88 0a88 88 0 1 0 88 88 88 88 0 0 0 -88-88zm48.25 99.11a22.84 22.84 0 0 1 .75 5.89c0 19.71-21.89 35.69-48.87 35.69s-48.76-16-48.76-35.69a27.21 27.21 0 0 1 .6-5.81c-11.8-6-7.58-23.55 5.31-23.55a12.22 12.22 0 0 1 8.9 3.84c8.3-5.82 19.34-9.56 31.6-10.07l7-32.37a2.16 2.16 0 0 1 2.56-1.67l22.58 5.07a9.22 9.22 0 1 1 8.2 13.56 9.17 9.17 0 0 1 -9.12-9.25l-20.41-4.66-6.42 29.36c12.36.4 23.51 4.14 31.79 10a12.27 12.27 0 0 1 8.78-3.74c12.82-.04 17.08 17.38 5.51 23.4z" fill="#000000" style="fill: rgb(0, 0, 0);"></path></g></g></g></svg>