<!-- icon666.com - MILLIONS OF FREE VECTOR ICONS --><svg xmlns="http://www.w3.org/2000/svg" xmlns:xlink="http://www.w3.org/1999/xlink" version="1.1" id="Capa_1" x="0px" y="0px" viewBox="0 0 512 512" style="enable-background:new 0 0 512 512;" xml:space="preserve"><g id="Artboard"><path style="fill-rule:evenodd;clip-rule:evenodd;" d="M256,0C114.62,0,0,114.62,0,256s114.62,256,256,256s256-114.62,256-256 S397.38,0,256,0z M374.66,174.1c-3.85,40.48-20.52,138.71-29,184.05c-3.59,19.19-10.66,25.62-17.5,26.25 c-14.86,1.37-26.15-9.83-40.55-19.27c-22.53-14.77-35.26-23.96-57.13-38.37c-25.28-16.66-8.89-25.81,5.51-40.77 c3.77-3.92,69.27-63.5,70.54-68.9c0.16-0.68,0.31-3.2-1.19-4.53s-3.71-0.87-5.3-0.51c-2.26,0.51-38.26,24.3-107.98,71.37 c-10.22,7.02-19.47,10.43-27.77,10.26c-9.14-0.2-26.72-5.17-39.79-9.42c-16.03-5.21-28.77-7.97-27.66-16.82 c0.57-4.61,6.92-9.32,19.04-14.14c74.63-32.52,124.39-53.95,149.29-64.31c71.099-29.569,85.87-34.71,95.499-34.88 C372.731,153.897,375.642,163.853,374.66,174.1z"></path></g></svg>