<?xml version="1.0" encoding="UTF-8"?>
<svg xmlns="http://www.w3.org/2000/svg" xmlns:xlink="http://www.w3.org/1999/xlink" width="38px" height="38px" viewBox="0 0 38 38" version="1.1">
<g id="surface1">
<path style=" stroke:none;fill-rule:evenodd;fill:rgb(100%,100%,100%);fill-opacity:1;" d="M 19 0 C 8.507812 0 0 8.507812 0 19 C 0 29.492188 8.507812 38 19 38 C 29.492188 38 38 29.492188 38 19 C 38 8.507812 29.492188 0 19 0 Z M 27.808594 12.921875 C 27.519531 15.925781 26.285156 23.214844 25.65625 26.582031 C 25.386719 28.003906 24.863281 28.484375 24.355469 28.53125 C 23.253906 28.632812 22.414062 27.800781 21.347656 27.097656 C 19.675781 26.003906 18.730469 25.320312 17.105469 24.25 C 15.230469 23.015625 16.445312 22.335938 17.515625 21.226562 C 17.792969 20.933594 22.65625 16.511719 22.75 16.113281 C 22.761719 16.0625 22.773438 15.875 22.660156 15.777344 C 22.550781 15.675781 22.386719 15.710938 22.269531 15.738281 C 22.101562 15.777344 19.429688 17.542969 14.253906 21.035156 C 13.496094 21.554688 12.808594 21.808594 12.195312 21.796875 C 11.515625 21.78125 10.210938 21.414062 9.238281 21.097656 C 8.050781 20.710938 7.105469 20.507812 7.1875 19.847656 C 7.230469 19.507812 7.699219 19.15625 8.601562 18.800781 C 14.140625 16.386719 17.832031 14.796875 19.679688 14.027344 C 24.957031 11.832031 26.054688 11.449219 26.769531 11.4375 C 27.664062 11.421875 27.878906 12.160156 27.808594 12.921875 Z M 27.808594 12.921875 "/>
</g>
</svg>
